<svg xmlns='http://www.w3.org/2000/svg'>
    <symbol id="pinterest" viewBox="0 0 496 512">
            <path d="M496 256c0 137-111 248-248 248-25.6 0-50.2-3.9-73.4-11.1 10.1-16.5 25.2-43.5 30.8-65 3-11.6 15.4-59 15.4-59 8.1 15.4 31.7 28.5 56.8 28.5 74.8 0 128.7-68.8 128.7-154.3 0-81.9-66.9-143.2-152.9-143.2-107 0-163.9 71.8-163.9 150.1 0 36.4 19.4 81.7 50.3 96.1 4.7 2.2 7.2 1.2 8.3-3.3.8-3.4 5-20.3 6.9-28.1.6-2.5.3-4.7-1.7-7.1-10.1-12.5-18.3-35.3-18.3-56.6 0-54.7 41.4-107.6 112-107.6 60.9 0 103.6 41.5 103.6 100.9 0 67.1-33.9 113.6-78 113.6-24.3 0-42.6-20.1-36.7-44.8 7-29.5 20.5-61.3 20.5-82.6 0-19-10.2-34.9-31.4-34.9-24.9 0-44.9 25.7-44.9 60.2 0 22 7.4 36.8 7.4 36.8s-24.5 103.8-29 123.2c-5 21.4-3 51.6-.9 71.2C65.4 450.9 0 361.1 0 256 0 119 111 8 248 8s248 111 248 248z"/>
        </symbol>

        <symbol id="facebook" viewBox="0 0 320 512">
            <path d="M279.14 288l14.22-92.66h-88.91v-60.13c0-25.35 12.42-50.06 52.24-50.06h40.42V6.26S260.43 0 225.36 0c-73.22 0-121.08 44.38-121.08 124.72v70.62H22.89V288h81.39v224h100.17V288z"/>
        </symbol>

        <symbol id="twitter" viewBox="0 0 512 512">
            <path d="M459.37 151.716c.325 4.548.325 9.097.325 13.645 0 138.72-105.583 298.558-298.558 298.558-59.452 0-114.68-17.219-161.137-47.106 8.447.974 16.568 1.299 25.34 1.299 49.055 0 94.213-16.568 130.274-44.832-46.132-.975-84.792-31.188-98.112-72.772 6.498.974 12.995 1.624 19.818 1.624 9.421 0 18.843-1.3 27.614-3.573-48.081-9.747-84.143-51.98-84.143-102.985v-1.299c13.969 7.797 30.214 12.67 47.431 13.319-28.264-18.843-46.781-51.005-46.781-87.391 0-19.492 5.197-37.36 14.294-52.954 51.655 63.675 129.3 105.258 216.365 109.807-1.624-7.797-2.599-15.918-2.599-24.04 0-57.828 46.782-104.934 104.934-104.934 30.213 0 57.502 12.67 76.67 33.137 23.715-4.548 46.456-13.32 66.599-25.34-7.798 24.366-24.366 44.833-46.132 57.827 21.117-2.273 41.584-8.122 60.426-16.243-14.292 20.791-32.161 39.308-52.628 54.253z"/>
        </symbol>

        <symbol id="dribbble" viewBox="0 0 512 512">
            <path d="M256 8C119.252 8 8 119.252 8 256s111.252 248 248 248 248-111.252 248-248S392.748 8 256 8zm163.97 114.366c29.503 36.046 47.369 81.957 47.835 131.955-6.984-1.477-77.018-15.682-147.502-6.818-5.752-14.041-11.181-26.393-18.617-41.614 78.321-31.977 113.818-77.482 118.284-83.523zM396.421 97.87c-3.81 5.427-35.697 48.286-111.021 76.519-34.712-63.776-73.185-116.168-79.04-124.008 67.176-16.193 137.966 1.27 190.061 47.489zm-230.48-33.25c5.585 7.659 43.438 60.116 78.537 122.509-99.087 26.313-186.36 25.934-195.834 25.809C62.38 147.205 106.678 92.573 165.941 64.62zM44.17 256.323c0-2.166.043-4.322.108-6.473 9.268.19 111.92 1.513 217.706-30.146 6.064 11.868 11.857 23.915 17.174 35.949-76.599 21.575-146.194 83.527-180.531 142.306C64.794 360.405 44.17 310.73 44.17 256.323zm81.807 167.113c22.127-45.233 82.178-103.622 167.579-132.756 29.74 77.283 42.039 142.053 45.189 160.638-68.112 29.013-150.015 21.053-212.768-27.882zm248.38 8.489c-2.171-12.886-13.446-74.897-41.152-151.033 66.38-10.626 124.7 6.768 131.947 9.055-9.442 58.941-43.273 109.844-90.795 141.978z"/>
        </symbol>

        <symbol id="behance" viewBox="0 0 576 512">
            <path d="M232 237.2c31.8-15.2 48.4-38.2 48.4-74 0-70.6-52.6-87.8-113.3-87.8H0v354.4h171.8c64.4 0 124.9-30.9 124.9-102.9 0-44.5-21.1-77.4-64.7-89.7zM77.9 135.9H151c28.1 0 53.4 7.9 53.4 40.5 0 30.1-19.7 42.2-47.5 42.2h-79v-82.7zm83.3 233.7H77.9V272h84.9c34.3 0 56 14.3 56 50.6 0 35.8-25.9 47-57.6 47zm358.5-240.7H376V94h143.7v34.9zM576 305.2c0-75.9-44.4-139.2-124.9-139.2-78.2 0-131.3 58.8-131.3 135.8 0 79.9 50.3 134.7 131.3 134.7 61.3 0 101-27.6 120.1-86.3H509c-6.7 21.9-34.3 33.5-55.7 33.5-41.3 0-63-24.2-63-65.3h185.1c.3-4.2.6-8.7.6-13.2zM390.4 274c2.3-33.7 24.7-54.8 58.5-54.8 35.4 0 53.2 20.8 56.2 54.8H390.4z"/>
        </symbol>

        <symbol id="about" viewBox="0 0 512 512" width="350" height="400px">
            <path d="M491.216,273.154h-99.413c-11.461,0-20.784,9.323-20.784,20.784v3.797c-0.089,0.465-0.14,0.944-0.14,1.436v22.273h-87.958    v-22.273c0-0.297-0.021-0.589-0.055-0.877v-4.355c0-11.461-9.323-20.784-20.784-20.784h-99.413    c-11.461,0-20.784,9.323-20.784,20.784v145.996c0,11.461,9.323,20.784,20.784,20.784h99.414c11.461,0,20.784-9.323,20.784-20.784    v-23.921c0.033-0.288,0.055-0.58,0.055-0.877v-2.707h87.958v2.707c0,0.491,0.051,0.97,0.14,1.436v23.363    c0,11.461,9.323,20.784,20.784,20.784h99.412c11.461,0,20.784-9.323,20.784-20.784V293.94    C512,282.478,502.677,273.154,491.216,273.154z M182.086,445.51H162.67c-3.075,0-5.576-2.501-5.576-5.576V293.938    c0-3.075,2.501-5.576,5.576-5.576h19.417V445.51z M267.714,403.947c-0.033,0.288-0.055,0.58-0.055,0.877v35.11    c0,3.075-2.502,5.576-5.576,5.576h-64.788V288.362h64.788c3.074,0,5.576,2.501,5.576,5.576v35.11c0,0.297,0.021,0.589,0.055,0.877    V403.947z M370.88,397.22h-87.958v-60.568h87.958V397.22z M456.589,445.509h-64.787c-3.075,0.001-5.576-2.5-5.576-5.575v-35.11    c0-0.491-0.051-0.97-0.14-1.436v-72.906c0.089-0.465,0.14-0.944,0.14-1.436v-35.11c0-3.075,2.501-5.576,5.576-5.576h64.787    V445.509z M496.792,439.934c0,3.075-2.502,5.576-5.576,5.576h-19.417V288.362h19.417c3.074,0,5.576,2.501,5.576,5.576V439.934z" data-original="#000000" class="active-path" data-old_color="#ff0e3b" fill="#ff0e3b"/>
            <path d="M349.33,51.28h-99.413c-11.461,0-20.784,9.323-20.784,20.784v12.508c-0.123,0.543-0.194,1.106-0.194,1.686V99.57h-87.958    V86.258V72.064c0-11.461-9.323-20.784-20.784-20.784H20.784C9.323,51.281,0,60.604,0,72.065v145.996    c0,11.461,9.323,20.784,20.784,20.784h99.413c11.461,0,20.784-9.323,20.784-20.784v-15.837v-11.67h87.958v11.67    c0,0.581,0.071,1.144,0.194,1.686v14.149c0,11.461,9.323,20.784,20.784,20.784h99.413c11.461,0,20.784-9.323,20.784-20.784V72.064    C370.114,60.603,360.791,51.28,349.33,51.28z M38.276,223.637H20.784c-3.074,0-5.576-2.501-5.576-5.576V72.065    c0-3.075,2.502-5.576,5.576-5.576h17.492V223.637z M125.774,86.259v20.916v75.776v19.273v15.837c0,3.075-2.501,5.576-5.576,5.576    H53.484V66.488h66.713c3.075,0,5.576,2.501,5.576,5.576V86.259z M228.939,175.347h-87.958v-60.568h87.958V175.347z     M312.779,223.637h-62.862c-3.074,0-5.576-2.501-5.576-5.576v-35.11c0-0.581-0.071-1.144-0.194-1.686v-72.403    c0.123-0.543,0.194-1.106,0.194-1.686V72.065c0-3.075,2.502-5.576,5.576-5.576h62.862V223.637z M354.906,218.061    c0,3.075-2.501,5.576-5.576,5.576h-21.343V66.488h21.343c3.075,0,5.576,2.501,5.576,5.576V218.061z" data-original="#000000" class="active-path" data-old_color="#ff0e3b" fill="#ff0e3b"/>
        </symbol>

        <symbol id="star-medal" viewBox="0 0 512 512" width="41" height="41">
            <path d="M256,238.933c-75.29,0-136.533,61.252-136.533,136.533S180.71,512,256,512c75.281,0,136.533-61.252,136.533-136.533    S331.281,238.933,256,238.933z M256,494.933c-65.877,0-119.467-53.589-119.467-119.467S190.123,256,256,256    s119.467,53.589,119.467,119.467S321.877,494.933,256,494.933z" data-original="#000000" class="active-path" data-old_color="#ffffff" fill="#ffffff"/>

            <path d="M256,273.067c-56.465,0-102.4,45.935-102.4,102.4s45.935,102.4,102.4,102.4s102.4-45.935,102.4-102.4    S312.465,273.067,256,273.067z M256,460.8c-47.053,0-85.333-38.281-85.333-85.333s38.281-85.333,85.333-85.333    s85.333,38.281,85.333,85.333S303.053,460.8,256,460.8z" data-original="#000000" class="active-path" data-old_color="#ffffff" fill="#ffffff"/>

            <path d="M256,204.8c-18.825,0-34.133,15.309-34.133,34.133c0,4.898,1.084,9.728,3.226,14.327c1.638,3.524,5.436,5.513,9.276,4.796    c15.181-2.765,28.092-2.765,43.273,0c0.512,0.102,1.024,0.145,1.536,0.145c3.268,0,6.315-1.894,7.731-4.941    c2.142-4.599,3.226-9.429,3.226-14.327C290.133,220.109,274.825,204.8,256,204.8z M273.024,240.068    c-5.811-0.759-11.435-1.135-17.024-1.135c-5.589,0-11.213,0.375-17.024,1.135c-0.026-0.375-0.043-0.759-0.043-1.135    c0-9.412,7.654-17.067,17.067-17.067c9.412,0,17.067,7.654,17.067,17.067C273.067,239.309,273.058,239.693,273.024,240.068z" data-original="#000000" class="active-path" data-old_color="#ffffff" fill="#ffffff"/>

            <path d="M256,170.667c-4.71,0-8.533,3.814-8.533,8.533v34.133c0,4.719,3.823,8.533,8.533,8.533c4.71,0,8.533-3.814,8.533-8.533    V179.2C264.533,174.481,260.71,170.667,256,170.667z" data-original="#000000" class="active-path" data-old_color="#ffffff" fill="#ffffff"/>

            <path d="M364.39,10.112C360.482,3.772,353.707,0,346.266,0h-30.532c-3.234,0-6.187,1.826-7.637,4.71l-85.333,170.667    c-1.323,2.645-1.178,5.786,0.375,8.303c1.562,2.517,4.301,4.053,7.262,4.053h51.2c3.234,0,6.187-1.826,7.629-4.71l76.092-152.183    C368.649,24.183,368.299,16.435,364.39,10.112z M350.063,23.202l-73.737,147.465h-32.119l76.8-153.6h25.259    c2.133,0,3.234,1.408,3.618,2.014C350.251,19.686,351.019,21.291,350.063,23.202z" data-original="#000000" class="active-path" data-old_color="#ffffff" fill="#ffffff"/>

            <path d="M263.637,124.186L203.904,4.719C202.453,1.826,199.501,0,196.267,0h-30.532c-7.441,0-14.216,3.772-18.125,10.112    c-3.908,6.323-4.258,14.071-0.939,20.719l76.092,152.183c1.451,2.893,4.403,4.719,7.637,4.719s6.187-1.826,7.637-4.71l25.6-51.2    C264.841,129.417,264.841,126.583,263.637,124.186z M230.4,160.119L161.946,23.194c-0.956-1.903-0.188-3.516,0.188-4.122    c0.367-0.597,1.468-2.005,3.601-2.005h25.259L246.46,128L230.4,160.119z" data-original="#000000" class="active-path" data-old_color="#ffffff" fill="#ffffff"/>

            <path d="M322.995,4.053C321.434,1.536,318.694,0,315.733,0H196.267c-2.961,0-5.7,1.536-7.262,4.053    c-1.553,2.517-1.69,5.658-0.375,8.294l17.067,34.133c1.451,2.893,4.403,4.719,7.637,4.719h85.333c3.234,0,6.187-1.826,7.637-4.71    l17.067-34.133C324.693,9.711,324.557,6.571,322.995,4.053z M293.393,34.133h-74.786l-8.533-17.067h91.853L293.393,34.133z" data-original="#000000" class="active-path" data-old_color="#ffffff" fill="#ffffff"/>

            <path d="M292.838,375.467l20.847-24.32c2.295-2.671,2.705-6.485,1.041-9.591c-1.672-3.115-5.111-4.838-8.576-4.429l-28.143,3.516    l-14.37-28.732c-2.893-5.786-12.373-5.786-15.266,0l-14.37,28.732l-28.143-3.516c-3.499-0.393-6.904,1.323-8.576,4.429    c-1.664,3.106-1.254,6.921,1.041,9.591l20.838,24.32l-20.847,24.311c-2.295,2.671-2.714,6.477-1.041,9.591    c1.673,3.115,5.069,4.847,8.576,4.429l28.143-3.516l14.37,28.732c1.451,2.893,4.403,4.719,7.637,4.719    c3.234,0,6.187-1.826,7.629-4.71l14.37-28.732l28.143,3.516c3.465,0.401,6.904-1.323,8.576-4.429    c1.664-3.106,1.254-6.921-1.041-9.591L292.838,375.467z M275.123,381.022l11.238,13.107l-12.237-1.528    c-3.558-0.41-7.074,1.408-8.695,4.651L256,416.12l-9.438-18.867c-1.459-2.918-4.429-4.719-7.629-4.719    c-0.35,0-0.7,0.026-1.058,0.06l-12.228,1.527l11.238-13.107c2.739-3.191,2.739-7.91,0-11.102l-11.238-13.107l12.228,1.527    c3.593,0.384,7.074-1.417,8.695-4.651L256,334.814l9.429,18.876c1.621,3.243,5.146,5.069,8.695,4.651l12.237-1.527l-11.238,13.107    C272.384,373.112,272.384,377.83,275.123,381.022z" data-original="#000000" class="active-path" data-old_color="#ffffff" fill="#ffffff"/>

        </symbol>

        <symbol id="training" viewBox="0 0 512 512">
                <path d="M194.766,453.061L58.935,317.221c-12.894-12.902-35.379-12.894-48.272,0l-0.666,0.666    c-13.312,13.312-13.312,34.969,0,48.272l135.831,135.84c6.451,6.451,15.018,10.001,24.14,10.001    c9.113,0,17.689-3.55,24.132-10.001l0.666-0.666c6.451-6.443,10.001-15.01,10.001-24.132    C204.767,468.08,201.217,459.512,194.766,453.061z M182.691,489.267l-0.666,0.666c-6.451,6.451-17.689,6.451-24.14,0    L22.054,354.093c-6.656-6.656-6.656-17.484,0-24.14l0.666-0.666c3.226-3.226,7.509-5,12.074-5c4.557,0,8.84,1.775,12.066,5    l135.831,135.84c3.226,3.226,5,7.518,5,12.074S185.917,486.042,182.691,489.267z" data-original="#000000" class="active-path" data-old_color="#ffffff" fill="#ffffff"/>

                <path d="M108.41,440.441l-36.863-36.863c-3.336-3.336-8.729-3.336-12.066,0l-24.576,24.576c-3.336,3.336-3.336,8.729,0,12.066    l36.863,36.872c1.596,1.604,3.772,2.5,6.033,2.5s4.437-0.896,6.033-2.509l24.576-24.576    C111.746,449.17,111.746,443.777,108.41,440.441z M77.801,458.992l-24.797-24.806l12.51-12.501l24.797,24.797L77.801,458.992z" data-original="#000000" class="active-path" data-old_color="#ffffff" fill="#ffffff"/>

                <path d="M501.986,145.841L366.155,10.001C359.704,3.55,351.128,0,342.015,0c-9.122,0-17.698,3.55-24.14,10.001l-0.666,0.666    c-13.312,13.303-13.312,34.961,0,48.272l135.831,135.84c6.656,6.647,15.394,9.975,24.132,9.975c8.746,0,17.484-3.328,24.157-9.975    l0.666-0.666c6.443-6.451,9.992-15.027,9.992-24.14C511.987,160.859,508.437,152.283,501.986,145.841z M489.903,182.047    l-0.666,0.666c-6.647,6.647-17.485,6.656-24.14,0L329.266,46.873c-6.656-6.656-6.656-17.484,0-24.14l0.666-0.666    c3.226-3.226,7.509-5,12.074-5c4.557,0,8.84,1.775,12.066,5l135.831,135.84c3.226,3.226,5,7.501,5,12.066    C494.904,174.538,493.129,178.822,489.903,182.047z" data-original="#000000" class="active-path" data-old_color="#ffffff" fill="#ffffff"/>

                <path d="M477.061,71.773l-36.863-36.863c-3.2-3.2-8.866-3.2-12.066,0l-24.576,24.576c-3.336,3.336-3.336,8.729,0,12.066    l36.863,36.863c1.596,1.604,3.772,2.5,6.033,2.5s4.437-0.896,6.033-2.5l24.576-24.576    C480.397,80.502,480.397,75.109,477.061,71.773z M446.452,90.315l-24.797-24.797l12.51-12.51l24.797,24.797L446.452,90.315z" data-original="#000000" class="active-path" data-old_color="#ffffff" fill="#ffffff"/>

                    <path d="M343.585,174.299c-0.811-2.859-3.046-5.094-5.896-5.896l-67.096-18.927c-2.978-0.853-6.178-0.009-8.354,2.176     L151.639,262.251c-2.176,2.185-3.012,5.384-2.176,8.354l18.927,67.096c0.811,2.859,3.046,5.094,5.896,5.896l67.096,18.927     c0.759,0.222,1.545,0.324,2.313,0.324c2.236,0,4.412-0.879,6.042-2.5l110.599-110.599c2.176-2.185,3.012-5.384,2.176-8.354     L343.585,174.299z M241.203,344.741l-57.684-16.273l-16.273-57.684l103.525-103.525l57.684,16.273l16.273,57.684L241.203,344.741     z" data-original="#000000" class="active-path" data-old_color="#ffffff" fill="#ffffff"/>
                    <path d="M409.478,127.068l-24.576-24.576c-3.2-3.2-8.866-3.2-12.066,0l-27.17,27.178l-81.193-23.202     c-2.978-0.853-6.195-0.034-8.38,2.167L108.632,256.107c-2.185,2.193-3.021,5.393-2.167,8.38l23.193,81.193l-27.17,27.178     c-3.336,3.336-3.336,8.729,0,12.066l24.576,24.576c1.596,1.604,3.772,2.5,6.033,2.5c2.27,0,4.437-0.896,6.033-2.5l27.17-27.178     l81.193,23.202c2.97,0.845,6.187,0.026,8.38-2.167l147.462-147.471c2.185-2.193,3.021-5.393,2.167-8.38l-23.193-81.202     l27.17-27.17C412.814,135.797,412.814,130.404,409.478,127.068z M366.693,157.787c-2.185,2.193-3.021,5.393-2.167,8.38     l23.193,81.202L247.356,387.74l-81.193-23.202c-2.978-0.862-6.187-0.034-8.38,2.167L133.096,391.4l-12.51-12.51l24.695-24.695     c2.185-2.193,3.021-5.401,2.167-8.38l-23.193-81.193l140.371-140.371l81.185,23.202c2.961,0.853,6.178,0.026,8.371-2.167     l24.687-24.695l12.51,12.51L366.693,157.787z" data-original="#000000" class="active-path" data-old_color="#ffffff" fill="#ffffff"/>

                <path d="M286.591,311.419l-86.023-86.032c-3.2-3.2-8.866-3.2-12.066,0l-24.576,24.576c-3.336,3.336-3.336,8.729,0,12.066    l86.023,86.032c1.596,1.604,3.772,2.5,6.033,2.5s4.437-0.905,6.033-2.5l24.576-24.576    C289.928,320.148,289.928,314.755,286.591,311.419z M255.991,329.953l-73.957-73.957l12.51-12.51l73.957,73.957L255.991,329.953z" data-original="#000000" class="active-path" data-old_color="#ffffff" fill="#ffffff"/>

                <path d="M348.039,249.963l-86.023-86.023c-3.2-3.2-8.866-3.2-12.066,0l-24.576,24.576c-3.336,3.336-3.336,8.729,0,12.066    l86.023,86.023c1.596,1.604,3.772,2.5,6.033,2.5c2.261,0,4.429-0.896,6.033-2.5l24.576-24.576    C351.375,258.692,351.375,253.299,348.039,249.963z M317.43,268.505l-73.957-73.957l12.518-12.51l73.949,73.957L317.43,268.505z" data-original="#000000" class="active-path" data-old_color="#ffffff" fill="#ffffff"/>

        </symbol>

        <symbol id="watch" viewBox="0 0 512 512">
            <path d="M322.79,370.68c-1.587-2.338-4.224-3.746-7.057-3.746h-153.6c-2.833,0-5.478,1.4-7.066,3.746    c-1.587,2.347-1.911,5.325-0.862,7.953c0.171,0.41,16.461,42.027,16.461,99.234c0,18.825,15.309,34.133,34.133,34.133h68.267    c18.825,0,34.133-15.309,34.133-34.133c0-57.207,16.299-98.825,16.461-99.234C324.702,376.004,324.386,373.018,322.79,370.68z     M290.133,477.867c0,9.412-7.654,17.067-17.067,17.067H204.8c-9.412,0-17.067-7.654-17.067-17.067    c0-42.837-8.448-76.902-13.67-93.867h129.741C298.581,400.964,290.133,435.029,290.133,477.867z" data-original="#000000" class="active-path" data-old_color="#ffffff" fill="#ffffff"/>

            <path d="M323.661,133.367c-0.162-0.41-16.461-42.027-16.461-99.234C307.2,15.309,291.891,0,273.067,0H204.8    c-18.825,0-34.133,15.309-34.133,34.133c0,57.207-16.29,98.825-16.452,99.234c-1.05,2.628-0.725,5.615,0.862,7.953    c1.587,2.338,4.224,3.746,7.057,3.746h153.6c2.833,0,5.47-1.408,7.057-3.746C324.386,138.974,324.71,135.996,323.661,133.367z     M174.063,128c5.222-16.964,13.67-51.029,13.67-93.867c0-9.412,7.654-17.067,17.067-17.067h68.267    c9.412,0,17.067,7.654,17.067,17.067c0,42.837,8.448,76.902,13.67,93.867H174.063z" data-original="#000000" class="active-path" data-old_color="#ffffff" fill="#ffffff"/>

            <path d="M330.266,128H147.601c-15.514,0-28.134,12.621-28.134,28.134v199.731c0,15.514,12.621,28.134,28.134,28.134h182.665    c15.514,0,28.134-12.621,28.134-28.134V156.134C358.4,140.621,345.779,128,330.266,128z M341.333,355.866    c0,6.101-4.966,11.068-11.068,11.068H147.601c-6.101,0-11.068-4.966-11.068-11.068V156.134c0-6.101,4.966-11.068,11.068-11.068    h182.665c6.101,0,11.068,4.966,11.068,11.068V355.866z" data-original="#000000" class="active-path" data-old_color="#ffffff" fill="#ffffff"/>

            <path d="M375.484,170.667h-25.617c-4.71,0-8.533,3.823-8.533,8.533v51.2c0,4.71,3.823,8.533,8.533,8.533h25.617    c9.404,0,17.05-7.646,17.05-17.05v-34.167C392.533,178.313,384.887,170.667,375.484,170.667z M358.4,221.867v-34.133l17.067-0.017    l0.026,34.15H358.4z" data-original="#000000" class="active-path" data-old_color="#ffffff" fill="#ffffff"/>

            <path d="M375.484,273.067h-25.617c-4.71,0-8.533,3.823-8.533,8.533v51.2c0,4.71,3.823,8.533,8.533,8.533h25.617    c9.404,0,17.05-7.646,17.05-17.05v-34.167C392.533,280.713,384.887,273.067,375.484,273.067z M358.4,324.267v-34.133l17.067-0.017    l0.026,34.15H358.4z" data-original="#000000" class="active-path" data-old_color="#ffffff" fill="#ffffff"/>

            <path d="M315.733,247.467H303.94l-6.17-12.348c-1.331-2.645-3.925-4.42-6.869-4.685c-2.987-0.247-5.82,1.015-7.595,3.379    l-15.292,20.386l-12.348-43.213c-1.007-3.541-4.173-6.033-7.859-6.178c-3.541-0.154-7.04,2.082-8.337,5.53l-18.731,49.946    l-16.845-33.698c-1.357-2.722-4.062-4.514-7.1-4.702c-3.046-0.213-5.939,1.246-7.629,3.78l-14.532,21.803h-12.501    c-4.71,0-8.533,3.823-8.533,8.533s3.823,8.533,8.533,8.533H179.2c2.85,0,5.513-1.425,7.108-3.806l8.909-13.363l19.021,38.05    c1.451,2.901,4.412,4.719,7.629,4.719c0.145,0,0.299,0,0.452-0.009c3.388-0.179,6.349-2.338,7.543-5.521l16.512-44.041    l9.958,34.85c0.888,3.106,3.465,5.453,6.656,6.042c3.183,0.58,6.434-0.674,8.371-3.268l17.314-23.091l2.355,4.719    c1.451,2.893,4.403,4.719,7.637,4.719h17.067c4.71,0,8.533-3.823,8.533-8.533S320.444,247.467,315.733,247.467z" data-original="#000000" class="active-path" data-old_color="#ffffff" fill="#ffffff"/>

            <path d="M264.533,162.133h-102.4c-4.71,0-8.533,3.823-8.533,8.533s3.823,8.533,8.533,8.533h102.4c4.71,0,8.533-3.823,8.533-8.533    S269.244,162.133,264.533,162.133z" data-original="#000000" class="active-path" data-old_color="#ffffff" fill="#ffffff"/>

            <path d="M315.733,162.133h-17.067c-4.71,0-8.533,3.823-8.533,8.533s3.823,8.533,8.533,8.533h17.067    c4.71,0,8.533-3.823,8.533-8.533S320.444,162.133,315.733,162.133z" data-original="#000000" class="active-path" data-old_color="#ffffff" fill="#ffffff"/>

            <path d="M315.733,332.8h-102.4c-4.71,0-8.533,3.823-8.533,8.533s3.823,8.533,8.533,8.533h102.4c4.71,0,8.533-3.823,8.533-8.533    S320.444,332.8,315.733,332.8z" data-original="#000000" class="active-path" data-old_color="#ffffff" fill="#ffffff"/>

            <path d="M179.2,332.8h-17.067c-4.71,0-8.533,3.823-8.533,8.533s3.823,8.533,8.533,8.533H179.2c4.71,0,8.533-3.823,8.533-8.533    S183.91,332.8,179.2,332.8z" data-original="#000000" class="active-path" data-old_color="#ffffff" fill="#ffffff"/>

        </symbol>

        <symbol id="coin" viewBox="0 0 512 512" width="20px" height="20px">
            <path d="M512 80C512 98.01 497.7 114.6 473.6 128C444.5 144.1 401.2 155.5 351.3 158.9C347.7 157.2 343.9 155.5 340.1 153.9C300.6 137.4 248.2 128 192 128C183.7 128 175.6 128.2 167.5 128.6L166.4 128C142.3 114.6 128 98.01 128 80C128 35.82 213.1 0 320 0C426 0 512 35.82 512 80V80zM160.7 161.1C170.9 160.4 181.3 160 192 160C254.2 160 309.4 172.3 344.5 191.4C369.3 204.9 384 221.7 384 240C384 243.1 383.3 247.9 381.9 251.7C377.3 264.9 364.1 277 346.9 287.3C346.9 287.3 346.9 287.3 346.9 287.3C346.8 287.3 346.6 287.4 346.5 287.5L346.5 287.5C346.2 287.7 345.9 287.8 345.6 288C310.6 307.4 254.8 320 192 320C132.4 320 79.06 308.7 43.84 290.9C41.97 289.9 40.15 288.1 38.39 288C14.28 274.6 0 258 0 240C0 205.2 53.43 175.5 128 164.6C138.5 163 149.4 161.8 160.7 161.1L160.7 161.1zM391.9 186.6C420.2 182.2 446.1 175.2 468.1 166.1C484.4 159.3 499.5 150.9 512 140.6V176C512 195.3 495.5 213.1 468.2 226.9C453.5 234.3 435.8 240.5 415.8 245.3C415.9 243.6 416 241.8 416 240C416 218.1 405.4 200.1 391.9 186.6V186.6zM384 336C384 354 369.7 370.6 345.6 384C343.8 384.1 342 385.9 340.2 386.9C304.9 404.7 251.6 416 192 416C129.2 416 73.42 403.4 38.39 384C14.28 370.6 .0003 354 .0003 336V300.6C12.45 310.9 27.62 319.3 43.93 326.1C83.44 342.6 135.8 352 192 352C248.2 352 300.6 342.6 340.1 326.1C347.9 322.9 355.4 319.2 362.5 315.2C368.6 311.8 374.3 308 379.7 304C381.2 302.9 382.6 301.7 384 300.6L384 336zM416 278.1C434.1 273.1 452.5 268.6 468.1 262.1C484.4 255.3 499.5 246.9 512 236.6V272C512 282.5 507 293 497.1 302.9C480.8 319.2 452.1 332.6 415.8 341.3C415.9 339.6 416 337.8 416 336V278.1zM192 448C248.2 448 300.6 438.6 340.1 422.1C356.4 415.3 371.5 406.9 384 396.6V432C384 476.2 298 512 192 512C85.96 512 .0003 476.2 .0003 432V396.6C12.45 406.9 27.62 415.3 43.93 422.1C83.44 438.6 135.8 448 192 448z"/>
        </symbol>

        <symbol id="equipped" viewBox="0 0 512 512">
  
            <path d="M202.716,324.394c0-34.664-28.2-62.863-62.861-62.863s-62.862,28.2-62.862,62.862c0,25.187,15.006,47.775,37.815,57.673    v3.172h-11.521c-4.194,0-7.594,3.4-7.594,7.594v28.509c0,4.194,3.4,7.594,7.594,7.594h72.305c4.194,0,7.594-3.4,7.594-7.594    v-28.509c0-4.194-3.4-7.594-7.594-7.594h-10.691v-3.177C187.729,372.168,202.716,349.651,202.716,324.394z M167.996,400.426    v13.321h-57.117v-13.321H122.4h34.906H167.996z M129.995,385.237v-58.197c0-4.261,3.466-7.727,7.727-7.727h4.264    c4.261,0,7.727,3.466,7.727,7.727v49.936c0,0.009,0,0.018,0,0.026v8.235H129.995z M141.986,304.124h-4.264    c-12.636,0-22.915,10.279-22.915,22.915v37.926c-13.849-8.552-22.626-23.799-22.626-40.573c0-26.288,21.386-47.674,47.674-47.674    c26.288,0,47.674,21.386,47.674,47.674c-0.001,16.825-8.767,32.045-22.628,40.585v-37.938    C164.901,314.404,154.621,304.124,141.986,304.124z" data-original="#000000" class="active-path" data-old_color="#ff0e3b" fill="#ff0e3b"/>

            <path d="M511.134,30.805l-7.777-25.432c-0.588-1.926-1.919-3.539-3.697-4.485c-1.777-0.945-3.858-1.145-5.786-0.557    L380.706,34.938c-0.225,0.069-0.443,0.15-0.655,0.237c-2.028-0.367-4.112-0.569-6.244-0.569c-19.3,0-35.001,15.702-35.001,35.001    c0,9.49,3.801,18.103,9.954,24.415v143.345l-216.452-43.391c-6.404-1.284-12.84-1.983-19.245-2.13v-36.621h38.843    c4.194,0,7.594-3.4,7.594-7.594v-22.156c0-10.53-7.501-19.638-17.835-21.659L43.039,84.541    c-6.497-1.272-13.152,0.415-18.261,4.622c-5.109,4.207-8.04,10.417-8.04,17.036v41.431c0,4.194,3.4,7.594,7.594,7.594h39.68    v46.942c-8.197,3.844-15.977,8.727-23.153,14.607c-25.629,21-40.328,52.049-40.328,85.183v43.527    c0,40.396,21.867,75.775,54.381,94.941H40.538c-4.194,0-7.594,3.4-7.594,7.594v33.866c0,4.194,3.4,7.594,7.594,7.594h366.512    c4.195,0,7.594-3.4,7.594-7.594v-33.866c0-4.194-3.399-7.594-7.594-7.594h-23.517c32.514-19.166,54.382-54.545,54.382-94.941    c0-33.186-15.003-63.587-39.061-84.009V94.021c6.058-6.214,9.828-14.662,9.942-23.978l97.296-29.754    C510.103,39.062,512.361,34.816,511.134,30.805z M373.806,49.795c10.924,0,19.813,8.888,19.813,19.813    s-8.888,19.813-19.813,19.813s-19.813-8.888-19.813-19.813S362.882,49.795,373.806,49.795z M383.665,103.184v147.462    c-6.193-3.664-12.784-6.756-19.717-9.172V103.185c3.129,0.92,6.436,1.423,9.858,1.423    C377.229,104.608,380.536,104.105,383.665,103.184z M31.926,140.035V106.2c0-2.826,1.57-4.54,2.507-5.312    c0.936-0.772,2.92-1.985,5.693-1.441l98.625,19.275c3.222,0.63,5.56,3.469,5.56,6.752v14.562H31.926z M97.874,155.225v37.322    c-6.333,0.734-12.579,2.019-18.674,3.838v-41.159H97.874z M399.456,455.612v18.677H48.132v-18.677h62.528h217.126H399.456z     M422.727,345.483c0,52.351-42.591,94.941-94.942,94.941H110.66c-52.351,0-94.941-42.591-94.941-94.941v-43.527    c0-28.564,12.672-55.331,34.766-73.435c17.161-14.062,38.328-21.524,60.049-21.524c6.243,0,12.533,0.617,18.787,1.87    l217.125,43.526C390.647,261.254,422.727,300.404,422.727,345.483z M405.655,55.12c-1.677-3.672-3.968-7.004-6.745-9.866    l92.142-28.178l3.335,10.908L405.655,55.12z" data-original="#000000" class="active-path" data-old_color="#ff0e3b" fill="#ff0e3b"/> 

            <path d="M84.586,474.291H40.538c-4.194,0-7.594,3.4-7.594,7.594v22.52c0,4.194,3.4,7.594,7.594,7.594h44.048    c4.194,0,7.594-3.4,7.594-7.594v-22.52C92.18,477.691,88.78,474.291,84.586,474.291z M76.992,496.811h-28.86v-7.332h28.86V496.811    z" data-original="#000000" class="active-path" data-old_color="#ff0e3b" fill="#ff0e3b"/>

            <path d="M407.051,474.291h-44.048c-4.195,0-7.594,3.4-7.594,7.594v22.52c0,4.194,3.399,7.594,7.594,7.594h44.048    c4.194,0,7.594-3.4,7.594-7.594v-22.52C414.645,477.691,411.246,474.291,407.051,474.291z M399.456,496.811h-28.86v-7.332h28.86    V496.811z" data-original="#000000" class="active-path" data-old_color="#ff0e3b" fill="#ff0e3b"/>
            
        </symbol>

        <symbol id="healthy" viewBox="0 0 512 512">

            <path d="M428.99,159.303c-23.572-21.383-54.99-30.087-86.206-23.878l-10.615,2.112c-18.169,3.615-36.43,5.922-54.716,6.938    c-0.32-8.534-0.103-23.692,3.785-40.412c7.753-33.349,25.8-57.022,53.636-70.36c2.568-1.231,4.235-3.789,4.325-6.636    c0.088-2.847-1.418-5.505-3.904-6.893l-23.369-13.04c-2.162-1.205-4.776-1.289-7.008-0.217    c-18.271,8.754-33.077,22.43-44.003,40.399c0.433-12.014-1.513-26.51-11.131-36.128c-17.991-17.99-53.059-9.145-56.998-8.078    c-2.613,0.708-4.654,2.75-5.361,5.362c-1.068,3.94-9.913,39.007,8.079,56.997c8.818,8.818,21.737,11.189,33.085,11.189    c8.114,0,15.424-1.213,19.853-2.148c-2.15,6.418-3.955,13.178-5.384,20.28c-4.181,20.776-4.277,39.438-3.839,49.914    c-19.848-0.863-39.672-3.248-59.388-7.17l-10.614-2.111c-31.213-6.209-62.635,2.494-86.206,23.877    c-23.572,21.384-35.285,51.812-32.134,83.482c0.021,0.206,0.05,0.411,0.086,0.614l37.139,203.455    c3.717,21.879,16.611,41.222,35.377,53.07c18.767,11.848,41.775,15.169,63.127,9.117l32.327-9.166    c24.251-6.876,49.887-6.876,74.137,0l32.326,9.166c6.997,1.984,14.172,2.96,21.316,2.96c14.659,0,29.194-4.112,41.81-12.077    c18.766-11.847,31.66-31.189,35.361-52.977l37.155-203.546c0.038-0.203,0.066-0.407,0.086-0.614    C464.274,211.114,452.561,180.687,428.99,159.303z M244.139,59.823c-10.437,2.002-29.262,3.463-37.858-5.133    c-8.595-8.595-7.135-27.418-5.134-37.849c10.231-1.929,29.308-3.427,37.859,5.125C247.604,30.565,246.141,49.394,244.139,59.823z     M308.037,22.42l7.913,4.415c-25.129,16.162-42.186,41.577-49.675,74.279c-4.17,18.213-4.435,34.463-4.072,43.908    c-0.244,0.004-0.489,0.01-0.733,0.013h-6.96C253.509,122.678,254.699,50.926,308.037,22.42z M445.986,240.973l-37.115,203.328    c-2.993,17.617-13.376,33.193-28.486,42.733c-15.112,9.539-33.639,12.216-50.832,7.341l-32.326-9.166    c-26.971-7.645-55.483-7.645-82.453,0l-32.327,9.166c-17.194,4.876-35.721,2.198-50.831-7.341    c-15.112-9.54-25.495-25.116-28.504-42.826L66.013,240.973c-2.562-26.705,7.355-52.345,27.238-70.382    c19.959-18.105,46.563-25.469,72.992-20.218l10.614,2.111c17.134,3.408,34.348,5.698,51.587,6.883l-50.569,10.643    c-4.119,0.867-6.755,4.908-5.888,9.028c0.756,3.589,3.922,6.053,7.451,6.053c0.52,0,1.049-0.054,1.578-0.166l154.111-32.436    c0.006-0.001,0.012-0.002,0.018-0.003l10.615-2.112c26.432-5.254,53.033,2.113,72.991,20.218    C438.631,188.629,448.549,214.268,445.986,240.973z" data-original="#000000" class="active-path" data-old_color="#ff0e3b" fill="#ff0e3b"/>

            <path d="M218.197,289.325c-2.347-1.347-5.234-1.347-7.583,0c-2.535,1.454-24.766,14.743-24.766,33.428s22.23,31.976,24.765,33.429    c1.175,0.674,2.483,1.01,3.791,1.01c1.309,0,2.618-0.336,3.791-1.01c2.535-1.454,24.766-14.744,24.766-33.429    S220.733,290.779,218.197,289.325z M214.407,340.457c-5.507-3.996-13.315-11.101-13.315-17.704c0-6.61,7.827-13.725,13.329-17.715    c5.826,4.222,13.301,11.388,13.301,17.715C227.721,329.358,219.909,336.466,214.407,340.457z" data-original="#000000" class="active-path" data-old_color="#ff0e3b" fill="#ff0e3b"/>

            <path d="M295.276,289.325c-2.346-1.347-5.233-1.347-7.582,0c-2.535,1.454-24.766,14.743-24.766,33.428    s22.231,31.976,24.766,33.429c1.175,0.674,2.482,1.01,3.791,1.01s2.618-0.336,3.791-1.01c2.535-1.454,24.765-14.744,24.765-33.429    S297.811,290.778,295.276,289.325z M291.486,340.458c-5.508-3.996-13.316-11.101-13.316-17.704    c0-6.605,7.812-13.712,13.315-17.703c5.508,3.994,13.315,11.101,13.315,17.703C304.8,329.358,296.987,336.466,291.486,340.458z" data-original="#000000" class="active-path" data-old_color="#ff0e3b" fill="#ff0e3b"/>

            <path d="M308.607,223.115c-23.634-24.505-46.961-39.574-47.943-40.204c-2.507-1.608-5.722-1.608-8.229,0    c-0.982,0.63-24.309,15.698-47.943,40.204c-31.864,33.042-48.707,67.495-48.707,99.638s16.843,66.596,48.707,99.638    c23.634,24.506,46.961,39.574,47.943,40.204c1.253,0.804,2.684,1.206,4.114,1.206c1.431,0,2.861-0.402,4.115-1.206    c0.982-0.63,24.309-15.698,47.943-40.204c31.864-33.042,48.707-67.495,48.707-99.638S340.471,256.157,308.607,223.115z     M256.55,446.952c-17.598-12.4-85.522-64.169-85.522-124.199c0-60.029,67.926-111.799,85.522-124.199    c17.598,12.4,85.522,64.169,85.522,124.199C342.072,382.782,274.146,434.552,256.55,446.952z" data-original="#000000" class="active-path" data-old_color="#ff0e3b" fill="#ff0e3b"/>

        </symbol>

        <symbol id="trainers" viewBox="0 0 512 512">
            <path d="M504.396,181.31c-60.018,0-104.368,38.809-116.491,50.638c-48.276-11.705-78.346,7.199-95.212,25.461    c-8.824,9.554-14.916,19.801-18.905,28.012c-2.417-3.758-5.416-7.89-9.048-12.021c-15.922-18.111-36.483-27.683-59.461-27.683    c-19.439,0-34.921,6.011-46.858,13.867l36.531-83.644l3.674,7.229c1.297,2.552,3.917,4.159,6.779,4.159h54.409h21.17h87.626    c4.199,0,7.604-3.405,7.604-7.604v-49.834c0-1.172-0.273-2.277-0.746-3.269l3.147-3.549c1.751-1.975,2.353-4.717,1.589-7.245    l-25.306-83.748c-0.969-3.209-3.927-5.405-7.279-5.405h-33.744H273.69h-17.157h-33.744h-40.186c-1.822,0-3.583,0.654-4.964,1.843    l-48.998,42.215c-0.759,0.655-1.382,1.452-1.831,2.347L0.809,323.895C0.277,324.953,0,326.123,0,327.308v62.444    c0,2.24,0.987,4.367,2.7,5.81c2.745,2.317,68.201,56.728,154.144,56.728c72.853,0,132.633-23.857,149.947-31.517l62.326,62.325    c1.425,1.427,3.36,2.227,5.376,2.227h129.902c4.199,0,7.604-3.405,7.604-7.604V188.914C512,184.715,508.595,181.31,504.396,181.31    z M361.009,172.119L361.009,172.119h-80.023h-13.566v-14.28h3.018h27.085h13.101h33.744c2.176,0,4.246-0.932,5.69-2.559    l10.951-12.35V172.119z M341.974,41.883l22.445,74.278l-23.472,26.471h-13.418l17.343-19.559c1.751-1.975,2.353-4.717,1.589-7.245    l-22.343-73.944H341.974z M308.23,41.883l22.445,74.278l-23.472,26.471h-9.68h-10.18l17.343-19.559    c1.752-1.975,2.353-4.717,1.59-7.245l-22.344-73.944H308.23z M377.642,470.118l-63.843-63.843    c-2.297-2.296-5.802-2.879-8.719-1.454c-0.66,0.322-66.961,32.261-148.238,32.261c-70.907,0-128.709-41.08-141.635-51.006v-56.967    L139.718,81.263l45.708-39.38h37.363h33.744h11.511l22.444,74.278l-23.472,26.471h-3.238h-32.582v-7.688    c0-7.647,6.22-13.867,13.867-13.867h12.362c2.527,0,4.888-1.255,6.302-3.349c1.414-2.094,1.695-4.753,0.751-7.097l-10.41-25.842    c-0.036-0.09-0.082-0.174-0.122-0.263c-0.011-0.024-0.022-0.049-0.033-0.072c-0.961-2.09-2.764-3.549-4.841-4.135    c-0.004-0.001-0.008-0.002-0.011-0.003c-0.223-0.063-0.449-0.116-0.678-0.158c-0.043-0.008-0.086-0.014-0.129-0.021    c-0.193-0.032-0.387-0.058-0.583-0.075c-0.075-0.007-0.15-0.01-0.226-0.015c-0.165-0.01-0.33-0.015-0.496-0.014    c-0.046,0-0.089-0.005-0.135-0.004c-1.685,0.044-27.537,0.022-44.504-0.002c-0.004,0-0.007,0-0.011,0    c-4.194,0-7.598,3.397-7.604,7.593c-0.006,4.199,3.393,7.609,7.593,7.615c2.78,0.004,19.39,0.027,31.636,0.027    c3.009,0,5.754-0.001,7.965-0.005l4.274,10.612h-1.101c-16.032,0-29.074,13.042-29.074,29.075v15.292    c0,4.199,3.405,7.604,7.604,7.604h28.619v14.28h-42.14l-8.86-17.43c-1.333-2.623-4.081-4.246-7.001-4.155    c-2.941,0.085-5.568,1.86-6.746,4.557l-61.49,140.791c-1.663,3.806,0.036,8.242,3.816,9.963c3.778,1.721,8.241,0.092,10.022-3.659    c0.196-0.413,20.106-41.261,65.468-41.261c44.66,0,61.662,43.43,62.358,45.262c1.156,3.088,4.168,5.088,7.463,4.931    c3.294-0.148,6.117-2.402,6.991-5.581c0.056-0.203,5.752-20.459,21.776-37.809c21.094-22.841,49.479-29.565,84.37-19.987    c2.746,0.754,5.681-0.089,7.608-2.184c0.433-0.47,42.212-45.148,100.948-48.801v273.361H377.642z" data-original="#000000" class="active-path" data-old_color="#ff0e3b" fill="#ff0e3b"/>
        </symbol>
</svg>
